<?xml version="1.0"?>
<svg xmlns="http://www.w3.org/2000/svg" xmlns:xlink="http://www.w3.org/1999/xlink" version="1.1" id="Capa_1" x="0px" y="0px" viewBox="0 0 512 512" style="enable-background:new 0 0 512 512;" xml:space="preserve" width="512px" height="512px"><g><g>
	<g>
		<path d="M370.432,230.933l-61.099-15.275V72.341l34.581-8.64c4.757-1.195,8.085-5.483,8.085-10.368V10.667    C352,4.779,347.221,0,341.333,0H170.667C164.779,0,160,4.779,160,10.667v42.667c0,4.885,3.328,9.173,8.085,10.347l34.581,8.661    V215.68l-61.099,15.275c-14.272,3.563-24.235,16.341-24.235,31.04V288c0,5.888,4.779,10.667,10.667,10.667h117.333v202.667    c0,5.888,4.779,10.667,10.667,10.667s10.667-4.779,10.667-10.667V298.667H384c5.888,0,10.667-4.779,10.667-10.667v-26.005    C394.667,247.296,384.704,234.517,370.432,230.933z" data-original="#000000" class="active-path" data-old_color="#000000" fill="#FFFFFF"/>
	</g>
</g></g> </svg>
